# xmcd CD database file
#
# Track frame offsets:
#	150
#	28346
#	30635
#	56025
#	58999
#	75823
#	87598
#	90286
#	111550
#	134399
#	138029
#	151580
#	155237
#	179814
#	197216
#	200319
#	228599
#	231903
#
# Disc length: 3332 seconds
#
# Revision: 0
# Processed by: cddbd v1.5.2PL0 Copyright (c) Steve Scherf et al.
# Submitted via: CDex 1.70beta2
#
DISCID=f90d0212
DTITLE=François Arnold - Manu Codjia - Handprint
DYEAR=2010
DGENRE=Jazz
TTITLE0=L'écharpe - M.Codjia
TTITLE1=Ouverture de paupières - Fr.Arnold, M.Codjia
TTITLE2=Grand Caire - Fr.Arnold
TTITLE3=Tu disais? - Fr.Arnold, M.Codjia
TTITLE4=Round Midnight - Thelonius Monk
TTITLE5=Seine Lab - M.Codjia
TTITLE6=Plein rêve! - Fr.Arnold, M.Codjia
TTITLE7=The Beatles - John Scofield
TTITLE8=Very early - Bill Evans
TTITLE9=Suite mécanique - Fr.Arnold, M.Codjia
TTITLE10=Nardis - Miles Davis
TTITLE11=Du coin de l'oreille - Fr.Arnold, M.Codjia
TTITLE12=Focus Pronair - M.Codjia
TTITLE13=I should care - Cahn, Stordhal, Weston
TTITLE14=440 or 442 - Fr.Arnold, M.Codjia
TTITLE15=Handprint - Fr.Arnold
TTITLE16=Des larmes dans les gouttes - Fr.Arnold, M.Codjia
TTITLE17=Sans les mots - Fr.Arnold
EXTD=YEAR: 2010
EXTT0=
EXTT1=
EXTT2=
EXTT3=
EXTT4=
EXTT5=
EXTT6=
EXTT7=
EXTT8=
EXTT9=
EXTT10=
EXTT11=
EXTT12=
EXTT13=
EXTT14=
EXTT15=
EXTT16=
EXTT17=
PLAYORDER=
